<?xml version="1.0" encoding="UTF-8"?>
<svg id="Layer_2" data-name="Layer 2" xmlns="http://www.w3.org/2000/svg" viewBox="0 0 200 200">
  <defs>
    <style>
      .cls-1 {
        fill: #fff;
      }

      .cls-2 {
        fill: #34d399;
      }
    </style>
  </defs>
  <g id="Layer_1-2" data-name="Layer 1">
    <rect width="200" height="200"/>
    <g>
      <path class="cls-1" d="M185.52,119.2h-32.38c-11.55,0-20.94-9.4-20.94-20.94s9.4-20.94,20.94-20.94h32.38v14h-32.38c-3.83,0-6.94,3.12-6.94,6.94s3.12,6.94,6.94,6.94h32.38v14ZM130.58,98.26c0-11.55-9.4-20.94-20.94-20.94h-18.44c-3.83,0-6.94-3.12-6.94-6.94s3.12-6.94,6.94-6.94h94.32v-14h-94.32c-11.55,0-20.94,9.4-20.94,20.94s9.4,20.94,20.94,20.94h18.44c3.83,0,6.94,3.12,6.94,6.94s-3.12,6.94-6.94,6.94h-60.27c-11.52,0-20.89-9.37-20.89-20.89s9.37-20.89,20.89-20.89h16.44v-14h-16.44c-19.24,0-34.89,15.65-34.89,34.89s15.65,34.89,34.89,34.89h60.27c11.55,0,20.94-9.4,20.94-20.94Z"/>
      <path class="cls-2" d="M15.39,150.57h170.13v-14H15.39v14Z"/>
    </g>
  </g>
</svg>