<?xml version="1.0" encoding="UTF-8"?>
<svg id="Layer_2" xmlns="http://www.w3.org/2000/svg" version="1.1" viewBox="0 0 200 100">
  <!-- Generator: Adobe Illustrator 29.2.1, SVG Export Plug-In . SVG Version: 2.1.0 Build 116)  -->
  <defs>
    <style>
      .st0 {
        fill: #fff;
      }
    </style>
  </defs>
  <g id="Layer_10">
    <path class="st0" d="M200,90.8h-37.9c-13.5,0-24.5-11-24.5-24.5s11-24.5,24.5-24.5h37.9v16.4h-37.9c-4.5,0-8.1,3.6-8.1,8.1s3.6,8.1,8.1,8.1h37.9v16.4h0ZM135.8,66.3c0-13.5-11-24.5-24.5-24.5h-21.6c-4.5,0-8.1-3.6-8.1-8.1s3.6-8.1,8.1-8.1h110.3V9.2h-110.3c-13.5,0-24.5,11-24.5,24.5s11,24.5,24.5,24.5h21.6c4.5,0,8.1,3.6,8.1,8.1s-3.6,8.1-8.1,8.1H40.8c-13.5,0-24.4-11-24.4-24.4s11-24.4,24.4-24.4h19.2V9.2h-19.2C18.3,9.2,0,27.5,0,50s18.3,40.8,40.8,40.8h70.5c13.5,0,24.5-11,24.5-24.5h0Z"/>
  </g>
</svg>